<svg xmlns="http://www.w3.org/2000/svg" xmlns:xlink="http://www.w3.org/1999/xlink" width="500" zoomAndPan="magnify" viewBox="0 0 375 374.999991" height="500" preserveAspectRatio="xMidYMid meet" version="1.2"><defs><clipPath id="dc492a9b07"><path d="M 136 82 L 234 82 L 234 209 L 136 209 Z M 136 82 "/></clipPath><clipPath id="e7f988e7b5"><path d="M 129.222656 93.226562 L 225.648438 78.800781 L 243.960938 201.1875 L 147.535156 215.613281 Z M 129.222656 93.226562 "/></clipPath><clipPath id="c4f7c90f01"><path d="M 129.222656 93.226562 L 225.648438 78.800781 L 243.960938 201.1875 L 147.535156 215.613281 Z M 129.222656 93.226562 "/></clipPath><clipPath id="418f8b514f"><path d="M 163 129 L 208 129 L 208 193 L 163 193 Z M 163 129 "/></clipPath><clipPath id="42d5ee9e1c"><path d="M 129.222656 93.226562 L 225.648438 78.800781 L 243.960938 201.1875 L 147.535156 215.613281 Z M 129.222656 93.226562 "/></clipPath><clipPath id="2d4ba43bc6"><path d="M 129.222656 93.226562 L 225.648438 78.800781 L 243.960938 201.1875 L 147.535156 215.613281 Z M 129.222656 93.226562 "/></clipPath><clipPath id="0159a40119"><path d="M 100.175781 202.539062 L 277 202.539062 L 277 251.289062 L 100.175781 251.289062 Z M 100.175781 202.539062 "/></clipPath><clipPath id="297ea1cc44"><path d="M 124.496094 202.539062 L 252.476562 202.539062 C 265.910156 202.539062 276.800781 213.429688 276.800781 226.859375 C 276.800781 240.292969 265.910156 251.183594 252.476562 251.183594 L 124.496094 251.183594 C 111.0625 251.183594 100.175781 240.292969 100.175781 226.859375 C 100.175781 213.429688 111.0625 202.539062 124.496094 202.539062 Z M 124.496094 202.539062 "/></clipPath><clipPath id="bca4f47620"><path d="M 108.65625 210.621094 L 192.765625 210.621094 L 192.765625 243.097656 L 108.65625 243.097656 Z M 108.65625 210.621094 "/></clipPath><clipPath id="655d6cdb7c"><path d="M 124.894531 210.621094 L 176.433594 210.621094 C 185.402344 210.621094 192.671875 217.890625 192.671875 226.859375 C 192.671875 235.828125 185.402344 243.097656 176.433594 243.097656 L 124.894531 243.097656 C 115.925781 243.097656 108.65625 235.828125 108.65625 226.859375 C 108.65625 217.890625 115.925781 210.621094 124.894531 210.621094 Z M 124.894531 210.621094 "/></clipPath><clipPath id="5be458c16d"><path d="M 235 59 L 246 59 L 246 100 L 235 100 Z M 235 59 "/></clipPath><clipPath id="e80efa738a"><path d="M 98.199219 53.445312 L 241.597656 28.804688 L 257.726562 122.679688 L 114.328125 147.320312 Z M 98.199219 53.445312 "/></clipPath><clipPath id="832d904f07"><path d="M 98.199219 53.445312 L 241.597656 28.804688 L 257.726562 122.679688 L 114.328125 147.320312 Z M 98.199219 53.445312 "/></clipPath><clipPath id="93db1687e8"><path d="M 133 71 L 223 71 L 223 118 L 133 118 Z M 133 71 "/></clipPath><clipPath id="8fe0846134"><path d="M 98.199219 53.445312 L 241.597656 28.804688 L 257.726562 122.679688 L 114.328125 147.320312 Z M 98.199219 53.445312 "/></clipPath><clipPath id="bf232429d1"><path d="M 98.199219 53.445312 L 241.597656 28.804688 L 257.726562 122.679688 L 114.328125 147.320312 Z M 98.199219 53.445312 "/></clipPath><clipPath id="9c0b8b4630"><path d="M 102 41 L 246 41 L 246 90 L 102 90 Z M 102 41 "/></clipPath><clipPath id="5460b59e1b"><path d="M 98.199219 53.445312 L 241.597656 28.804688 L 257.726562 122.679688 L 114.328125 147.320312 Z M 98.199219 53.445312 "/></clipPath><clipPath id="6dafcc2710"><path d="M 98.199219 53.445312 L 241.597656 28.804688 L 257.726562 122.679688 L 114.328125 147.320312 Z M 98.199219 53.445312 "/></clipPath><clipPath id="6fdf153e22"><path d="M 238 92 L 248 92 L 248 102 L 238 102 Z M 238 92 "/></clipPath><clipPath id="84f796337c"><path d="M 98.199219 53.445312 L 241.597656 28.804688 L 257.726562 122.679688 L 114.328125 147.320312 Z M 98.199219 53.445312 "/></clipPath><clipPath id="dd9cb426d6"><path d="M 98.199219 53.445312 L 241.597656 28.804688 L 257.726562 122.679688 L 114.328125 147.320312 Z M 98.199219 53.445312 "/></clipPath><clipPath id="9d83fd7a2d"><path d="M 241 96 L 254 96 L 254 125 L 241 125 Z M 241 96 "/></clipPath><clipPath id="ee4809dcfd"><path d="M 98.199219 53.445312 L 241.597656 28.804688 L 257.726562 122.679688 L 114.328125 147.320312 Z M 98.199219 53.445312 "/></clipPath><clipPath id="d880142c43"><path d="M 98.199219 53.445312 L 241.597656 28.804688 L 257.726562 122.679688 L 114.328125 147.320312 Z M 98.199219 53.445312 "/></clipPath></defs><g id="7a381e03af"><g clip-rule="nonzero" clip-path="url(#dc492a9b07)"><g clip-rule="nonzero" clip-path="url(#e7f988e7b5)"><g clip-rule="nonzero" clip-path="url(#c4f7c90f01)"><path style=" stroke:none;fill-rule:evenodd;fill:#283389;fill-opacity:1;" d="M 225.574219 112.265625 C 222.96875 103.9375 218.359375 93.820312 213.253906 88.050781 C 210.960938 85.460938 208.472656 83.632812 205.84375 82.992188 C 202.753906 82.234375 199.777344 83.023438 197.078125 85.902344 C 194.53125 88.613281 192.238281 93.460938 190.410156 101.125 L 169.246094 104.292969 C 165.253906 97.5 161.640625 93.535156 158.414062 91.6875 C 154.992188 89.726562 151.914062 89.84375 149.179688 91.46875 C 146.855469 92.851562 145.007812 95.328125 143.574219 98.480469 C 140.359375 105.542969 138.914062 116.683594 138.882812 125.441406 C 136.660156 130.847656 135.816406 136.894531 136.738281 143.066406 L 137.234375 146.386719 C 139.285156 160.089844 149.484375 170.664062 162.160156 173.917969 C 162.128906 176.554688 162.28125 179.105469 162.625 181.546875 C 163.648438 188.886719 166.355469 195.183594 170.542969 199.851562 C 174.839844 204.648438 180.625 207.691406 187.679688 208.363281 C 190.160156 208.601562 192.8125 208.539062 195.625 208.144531 L 195.675781 208.136719 C 198.484375 207.691406 201.035156 206.972656 203.335938 206.023438 C 209.886719 203.308594 214.527344 198.710938 217.234375 192.867188 C 219.871094 187.179688 220.617188 180.363281 219.449219 173.046875 C 219.058594 170.613281 218.460938 168.128906 217.65625 165.617188 C 221.394531 163.335938 224.628906 160.351562 227.199219 156.878906 C 232.3125 149.972656 234.796875 141.117188 233.433594 131.996094 L 232.9375 128.679688 C 232 122.417969 229.367188 116.816406 225.574219 112.265625 Z M 201.949219 90.46875 C 202.785156 89.582031 203.5625 89.304688 204.273438 89.480469 C 205.453125 89.765625 206.816406 90.863281 208.25 92.488281 C 210.757812 95.320312 213.160156 99.464844 215.203125 103.902344 C 213.863281 103.207031 212.472656 102.597656 211.042969 102.078125 C 211.042969 102.078125 211.046875 102.078125 211.046875 102.078125 C 207.417969 94.9375 203.546875 91.78125 201.019531 100.125 C 199.871094 100.078125 198.714844 100.09375 197.546875 100.171875 C 198.902344 95.222656 200.390625 92.125 201.949219 90.46875 Z M 149.660156 101.25 C 150.554688 99.277344 151.539062 97.832031 152.582031 97.210938 C 153.214844 96.835938 154.039062 96.871094 155.09375 97.476562 C 157.066406 98.609375 159.402344 101.132812 162.148438 105.46875 C 161.230469 105.6875 160.328125 105.945312 159.445312 106.234375 C 154.714844 99.265625 151.964844 103.140625 150.570312 110.722656 C 149.0625 111.796875 147.648438 112.988281 146.34375 114.285156 C 146.996094 109.414062 148.085938 104.714844 149.660156 101.25 Z M 211.171875 190.0625 C 209.171875 194.382812 205.707031 197.796875 200.796875 199.828125 C 198.9375 200.597656 196.894531 201.171875 194.664062 201.53125 C 192.421875 201.84375 190.300781 201.890625 188.300781 201.699219 C 183.007812 201.191406 178.695312 198.941406 175.519531 195.398438 C 172.226562 191.730469 170.078125 186.640625 169.242188 180.609375 C 168.988281 178.800781 168.855469 176.898438 168.847656 174.921875 C 170.988281 175.023438 173.171875 174.917969 175.371094 174.589844 L 187.769531 172.734375 L 188.625 178.445312 C 187.296875 179.089844 186.164062 180.042969 185.308594 181.199219 C 183.9375 183.054688 183.273438 185.433594 183.640625 187.894531 C 184.007812 190.355469 185.339844 192.4375 187.195312 193.808594 C 189.050781 195.179688 191.429688 195.847656 193.890625 195.480469 C 196.351562 195.109375 198.433594 193.78125 199.804688 191.921875 C 201.179688 190.066406 201.84375 187.6875 201.476562 185.226562 C 201.109375 182.765625 199.773438 180.683594 197.917969 179.3125 C 196.761719 178.457031 195.402344 177.875 193.945312 177.648438 L 193.089844 171.9375 L 205.222656 170.125 C 207.421875 169.796875 209.535156 169.257812 211.558594 168.53125 C 212.128906 170.421875 212.558594 172.277344 212.847656 174.082031 C 213.808594 180.097656 213.246094 185.589844 211.171875 190.0625 Z M 191.621094 180.300781 C 193.351562 180.042969 195.019531 180.507812 196.324219 181.472656 C 197.628906 182.441406 198.5625 183.902344 198.820312 185.628906 C 199.078125 187.359375 198.613281 189.027344 197.652344 190.332031 C 196.6875 191.636719 195.226562 192.574219 193.496094 192.832031 C 191.765625 193.089844 190.097656 192.625 188.792969 191.660156 C 187.488281 190.695312 186.554688 189.230469 186.296875 187.503906 C 186.039062 185.773438 186.503906 184.105469 187.464844 182.800781 C 188.429688 181.496094 189.890625 180.558594 191.621094 180.300781 Z M 226.800781 132.984375 C 227.890625 140.277344 225.894531 147.359375 221.804688 152.890625 C 217.714844 158.421875 211.527344 162.402344 204.230469 163.492188 L 174.378906 167.960938 C 159.78125 170.144531 146.054688 159.988281 143.871094 145.394531 L 143.375 142.074219 C 142.28125 134.78125 144.277344 127.699219 148.367188 122.167969 C 152.460938 116.640625 158.648438 112.660156 165.941406 111.566406 L 195.792969 107.101562 C 210.390625 104.917969 224.117188 115.074219 226.300781 129.667969 Z M 215.214844 131.78125 L 215.578125 134.207031 C 216.375 139.535156 214.917969 144.710938 211.929688 148.753906 C 208.9375 152.796875 204.414062 155.707031 199.085938 156.503906 L 177.261719 159.769531 C 166.589844 161.367188 156.554688 153.941406 154.960938 143.273438 L 154.597656 140.847656 C 153.796875 135.515625 155.253906 130.339844 158.246094 126.300781 C 161.238281 122.253906 165.761719 119.347656 171.09375 118.550781 L 192.917969 115.285156 C 203.582031 113.691406 213.621094 121.113281 215.214844 131.78125 Z M 215.214844 131.78125 "/></g></g></g><g clip-rule="nonzero" clip-path="url(#418f8b514f)"><g clip-rule="nonzero" clip-path="url(#42d5ee9e1c)"><g clip-rule="nonzero" clip-path="url(#2d4ba43bc6)"><path style=" stroke:none;fill-rule:nonzero;fill:#1ae5be;fill-opacity:1;" d="M 196.324219 181.472656 C 197.625 182.4375 198.5625 183.898438 198.820312 185.625 C 199.078125 187.355469 198.613281 189.027344 197.648438 190.332031 C 196.683594 191.636719 195.222656 192.570312 193.496094 192.828125 C 191.765625 193.085938 190.097656 192.621094 188.792969 191.65625 C 187.488281 190.695312 186.554688 189.230469 186.296875 187.5 C 186.035156 185.773438 186.503906 184.101562 187.464844 182.796875 C 188.429688 181.492188 189.890625 180.558594 191.621094 180.296875 C 193.351562 180.042969 195.023438 180.507812 196.324219 181.472656 Z M 173.59375 133.613281 C 172.417969 133.222656 171.203125 133.148438 170.03125 133.347656 C 168.867188 133.546875 167.753906 134.023438 166.777344 134.734375 C 164.589844 136.335938 163.085938 139.125 163.296875 142.667969 C 163.316406 143.019531 163.472656 143.320312 163.75 143.542969 C 164.027344 143.761719 164.351562 143.84375 164.703125 143.785156 L 164.960938 143.742188 C 165.570312 143.640625 166 143.101562 165.964844 142.488281 C 165.828125 139.945312 166.855469 137.988281 168.351562 136.894531 C 168.996094 136.425781 169.722656 136.113281 170.476562 135.980469 C 171.222656 135.851562 172.003906 135.902344 172.753906 136.152344 C 174.585938 136.761719 176.273438 138.582031 177.085938 141.957031 C 177.234375 142.574219 177.832031 142.972656 178.457031 142.867188 L 178.710938 142.824219 C 179.054688 142.769531 179.324219 142.59375 179.519531 142.300781 C 179.710938 142.011719 179.765625 141.691406 179.6875 141.351562 C 178.628906 136.9375 176.230469 134.492188 173.59375 133.613281 Z M 202.109375 129.453125 C 200.964844 129.058594 199.761719 128.929688 198.589844 129.078125 C 197.414062 129.226562 196.269531 129.65625 195.265625 130.375 C 192.996094 131.984375 191.417969 135.023438 191.699219 139.558594 C 191.722656 139.910156 191.871094 140.195312 192.140625 140.417969 C 192.410156 140.640625 192.722656 140.730469 193.066406 140.683594 L 193.320312 140.648438 C 193.949219 140.566406 194.40625 140.011719 194.367188 139.378906 C 194.15625 135.914062 195.238281 133.675781 196.808594 132.558594 C 197.453125 132.097656 198.183594 131.824219 198.9375 131.730469 C 199.695312 131.632812 200.484375 131.71875 201.234375 131.980469 C 202.988281 132.589844 204.542969 134.160156 205.152344 136.628906 C 205.300781 137.230469 205.867188 137.617188 206.480469 137.535156 L 206.742188 137.503906 C 207.09375 137.457031 207.378906 137.285156 207.578125 136.988281 C 207.78125 136.695312 207.84375 136.363281 207.757812 136.019531 C 206.921875 132.5625 204.667969 130.339844 202.109375 129.453125 Z M 202.109375 129.453125 "/></g></g></g><g clip-rule="nonzero" clip-path="url(#0159a40119)"><g clip-rule="nonzero" clip-path="url(#297ea1cc44)"><path style="fill:none;stroke-width:18;stroke-linecap:butt;stroke-linejoin:miter;stroke:#283389;stroke-opacity:1;stroke-miterlimit:4;" d="M 32.429533 0.000811467 L 203.070169 0.000811467 C 220.981628 0.000811467 235.502463 14.521646 235.502463 32.427897 C 235.502463 50.339356 220.981628 64.860191 203.070169 64.860191 L 32.429533 64.860191 C 14.518073 64.860191 0.0024471 50.339356 0.0024471 32.427897 C 0.0024471 14.521646 14.518073 0.000811467 32.429533 0.000811467 Z M 32.429533 0.000811467 " transform="matrix(0.75,0,0,0.75,100.173946,202.538454)"/></g></g><g clip-rule="nonzero" clip-path="url(#bca4f47620)"><g clip-rule="nonzero" clip-path="url(#655d6cdb7c)"><path style=" stroke:none;fill-rule:nonzero;fill:#283389;fill-opacity:1;" d="M 108.65625 210.621094 L 192.636719 210.621094 L 192.636719 243.097656 L 108.65625 243.097656 Z M 108.65625 210.621094 "/></g></g><g clip-rule="nonzero" clip-path="url(#5be458c16d)"><g clip-rule="nonzero" clip-path="url(#e80efa738a)"><g clip-rule="nonzero" clip-path="url(#832d904f07)"><path style=" stroke:none;fill-rule:nonzero;fill:#283389;fill-opacity:1;" d="M 241.222656 97.292969 C 241.4375 98.535156 242.371094 99.332031 243.304688 99.171875 L 244.390625 98.988281 C 245.320312 98.828125 245.9375 97.761719 245.722656 96.519531 L 239.347656 59.429688 L 235.167969 62.066406 Z M 241.222656 97.292969 "/></g></g></g><g clip-rule="nonzero" clip-path="url(#93db1687e8)"><g clip-rule="nonzero" clip-path="url(#8fe0846134)"><g clip-rule="nonzero" clip-path="url(#bf232429d1)"><path style=" stroke:none;fill-rule:nonzero;fill:#283389;fill-opacity:1;" d="M 133.605469 86.550781 C 134.589844 92.292969 136.566406 103.777344 136.617188 104.085938 C 138.832031 116.96875 158.878906 119.273438 182.46875 115.21875 C 206.058594 111.167969 224.160156 102.144531 221.972656 89.417969 C 221.894531 88.953125 221.546875 86.933594 221.414062 86.160156 L 218.933594 71.726562 L 178.789062 93.804688 Z M 133.605469 86.550781 "/></g></g></g><g clip-rule="nonzero" clip-path="url(#9c0b8b4630)"><g clip-rule="nonzero" clip-path="url(#5460b59e1b)"><g clip-rule="nonzero" clip-path="url(#6dafcc2710)"><path style=" stroke:none;fill-rule:nonzero;fill:#283389;fill-opacity:1;" d="M 245.363281 50.726562 L 178.042969 89.457031 L 102.019531 75.679688 L 168.816406 41.351562 L 223.65625 48.066406 L 172.441406 56.867188 L 173.082031 60.59375 L 236.710938 49.65625 Z M 245.363281 50.726562 "/></g></g></g><g clip-rule="nonzero" clip-path="url(#6fdf153e22)"><g clip-rule="nonzero" clip-path="url(#84f796337c)"><g clip-rule="nonzero" clip-path="url(#dd9cb426d6)"><path style=" stroke:none;fill-rule:nonzero;fill:#283389;fill-opacity:1;" d="M 247.714844 96.019531 C 247.761719 96.304688 247.785156 96.59375 247.777344 96.882812 C 247.769531 97.171875 247.734375 97.457031 247.667969 97.738281 C 247.605469 98.019531 247.515625 98.292969 247.398438 98.558594 C 247.277344 98.824219 247.136719 99.074219 246.96875 99.308594 C 246.800781 99.546875 246.613281 99.765625 246.402344 99.964844 C 246.195312 100.164062 245.964844 100.339844 245.722656 100.496094 C 245.476562 100.648438 245.21875 100.777344 244.949219 100.882812 C 244.679688 100.984375 244.402344 101.0625 244.117188 101.109375 C 243.832031 101.160156 243.542969 101.179688 243.253906 101.171875 C 242.964844 101.164062 242.679688 101.128906 242.394531 101.066406 C 242.113281 101.003906 241.839844 100.910156 241.574219 100.792969 C 241.3125 100.675781 241.058594 100.535156 240.824219 100.367188 C 240.585938 100.199219 240.371094 100.011719 240.171875 99.800781 C 239.972656 99.589844 239.792969 99.363281 239.640625 99.117188 C 239.484375 98.875 239.355469 98.617188 239.253906 98.347656 C 239.148438 98.074219 239.074219 97.796875 239.023438 97.511719 C 238.972656 97.226562 238.953125 96.941406 238.960938 96.652344 C 238.96875 96.359375 239.003906 96.074219 239.066406 95.792969 C 239.132812 95.511719 239.222656 95.238281 239.339844 94.972656 C 239.457031 94.707031 239.601562 94.457031 239.769531 94.222656 C 239.933594 93.984375 240.125 93.765625 240.332031 93.566406 C 240.542969 93.367188 240.769531 93.191406 241.015625 93.035156 C 241.261719 92.882812 241.519531 92.753906 241.789062 92.648438 C 242.058594 92.546875 242.335938 92.46875 242.621094 92.421875 C 242.90625 92.371094 243.195312 92.351562 243.484375 92.359375 C 243.773438 92.367188 244.058594 92.402344 244.339844 92.464844 C 244.625 92.53125 244.898438 92.621094 245.160156 92.738281 C 245.425781 92.855469 245.675781 93 245.914062 93.164062 C 246.148438 93.332031 246.367188 93.519531 246.566406 93.730469 C 246.765625 93.941406 246.941406 94.167969 247.097656 94.414062 C 247.253906 94.65625 247.382812 94.914062 247.484375 95.1875 C 247.589844 95.457031 247.664062 95.734375 247.714844 96.019531 Z M 247.714844 96.019531 "/></g></g></g><g clip-rule="nonzero" clip-path="url(#9d83fd7a2d)"><g clip-rule="nonzero" clip-path="url(#ee4809dcfd)"><g clip-rule="nonzero" clip-path="url(#d880142c43)"><path style=" stroke:none;fill-rule:nonzero;fill:#283389;fill-opacity:1;" d="M 251.449219 123.335938 L 244.621094 124.511719 C 243.226562 124.75 241.824219 124.035156 241.636719 122.945312 L 243.34375 96.609375 L 253.742188 120.867188 C 253.953125 122.109375 253.003906 123.070312 251.449219 123.335938 Z M 251.449219 123.335938 "/></g></g></g><g style="fill:#1ae5be;fill-opacity:1;"><g transform="translate(132.265192, 233.24181)"><path style="stroke:none" d="M 1.578125 0 L 1.578125 -10.859375 L 2.953125 -10.859375 L 2.953125 -1.296875 L 8.21875 -1.296875 L 8.21875 0 Z M 1.578125 0 "/></g></g><g style="fill:#1ae5be;fill-opacity:1;"><g transform="translate(142.148916, 233.24181)"><path style="stroke:none" d="M 1.578125 0 L 1.578125 -10.859375 L 8.171875 -10.859375 L 8.171875 -9.59375 L 2.953125 -9.59375 L 2.953125 -6.15625 L 7.78125 -6.15625 L 7.78125 -4.90625 L 2.953125 -4.90625 L 2.953125 -1.265625 L 8.34375 -1.265625 L 8.34375 0 Z M 1.578125 0 "/></g></g><g style="fill:#1ae5be;fill-opacity:1;"><g transform="translate(152.6843, 233.24181)"><path style="stroke:none" d="M 0.59375 0 L 4.46875 -5.546875 L 0.75 -10.859375 L 2.375 -10.859375 L 5.34375 -6.578125 L 6.25 -7.9375 L 8.28125 -10.859375 L 9.890625 -10.859375 L 6.171875 -5.5625 L 10.0625 0 L 8.453125 0 L 6.234375 -3.21875 L 5.34375 -4.515625 L 2.21875 0 Z M 0.59375 0 "/></g></g><g style="fill:#1ae5be;fill-opacity:1;"><g transform="translate(164.523006, 233.24181)"><path style="stroke:none" d="M 1.578125 0 L 1.578125 -10.859375 L 2.953125 -10.859375 L 2.953125 0 Z M 1.578125 0 "/></g></g><g style="fill:#283389;fill-opacity:1;"><g transform="translate(220.095722, 233.24181)"><path style="stroke:none" d="M 0.078125 0 L 4.296875 -10.859375 L 7.40625 -10.859375 L 11.625 0 L 8.28125 0 L 7.703125 -1.53125 L 3.984375 -1.53125 L 3.390625 0 Z M 4.640625 -3.828125 L 7.0625 -3.828125 L 5.84375 -7.203125 Z M 4.640625 -3.828125 "/></g></g><g style="fill:#283389;fill-opacity:1;"><g transform="translate(231.794547, 233.24181)"><path style="stroke:none" d="M 1.140625 0 L 1.140625 -10.859375 L 4.28125 -10.859375 L 4.28125 0 Z M 1.140625 0 "/></g></g><g style="fill:#283389;fill-opacity:1;"><g transform="translate(108.417566, 267.317649)"><path style="stroke:none" d="M 5.609375 -1.21875 C 5.722656 -1.21875 5.78125 -1.160156 5.78125 -1.046875 L 5.78125 -0.171875 C 5.78125 -0.0546875 5.722656 0 5.609375 0 L 1.046875 0 C 0.941406 0 0.890625 -0.0546875 0.890625 -0.171875 L 0.890625 -7.265625 C 0.890625 -7.367188 0.941406 -7.421875 1.046875 -7.421875 L 2.109375 -7.421875 C 2.210938 -7.421875 2.265625 -7.367188 2.265625 -7.265625 L 2.265625 -1.21875 Z M 5.609375 -1.21875 "/></g></g><g style="fill:#283389;fill-opacity:1;"><g transform="translate(119.682008, 267.317649)"><path style="stroke:none" d="M 6.25 -1.3125 C 6.34375 -1.3125 6.414062 -1.285156 6.46875 -1.234375 C 6.519531 -1.179688 6.546875 -1.113281 6.546875 -1.03125 L 6.546875 -0.21875 C 6.546875 -0.15625 6.523438 -0.101562 6.484375 -0.0625 C 6.453125 -0.0195312 6.398438 0 6.328125 0 L 1.109375 0 C 0.960938 0 0.890625 -0.0703125 0.890625 -0.21875 L 0.890625 -7.203125 C 0.890625 -7.347656 0.960938 -7.421875 1.109375 -7.421875 L 6.21875 -7.421875 C 6.289062 -7.421875 6.347656 -7.398438 6.390625 -7.359375 C 6.429688 -7.316406 6.453125 -7.265625 6.453125 -7.203125 L 6.453125 -6.328125 C 6.453125 -6.179688 6.375 -6.109375 6.21875 -6.109375 L 2.265625 -6.109375 L 2.265625 -4.0625 L 5.359375 -4.0625 C 5.441406 -4.0625 5.503906 -4.039062 5.546875 -4 C 5.597656 -3.96875 5.625 -3.910156 5.625 -3.828125 L 5.625 -3.015625 C 5.625 -2.953125 5.597656 -2.898438 5.546875 -2.859375 C 5.503906 -2.816406 5.441406 -2.796875 5.359375 -2.796875 L 2.265625 -2.796875 L 2.265625 -1.3125 Z M 6.25 -1.3125 "/></g></g><g style="fill:#283389;fill-opacity:1;"><g transform="translate(132.03001, 267.317649)"><path style="stroke:none" d="M 7.1875 -0.234375 C 7.21875 -0.160156 7.21875 -0.0976562 7.1875 -0.046875 C 7.15625 -0.00390625 7.097656 0.015625 7.015625 0.015625 L 5.96875 0.015625 C 5.914062 0.015625 5.863281 -0.00390625 5.8125 -0.046875 C 5.769531 -0.0859375 5.738281 -0.132812 5.71875 -0.1875 L 5.421875 -0.90625 L 2.015625 -0.90625 L 1.71875 -0.1875 C 1.695312 -0.132812 1.664062 -0.0859375 1.625 -0.046875 C 1.582031 -0.015625 1.53125 0 1.46875 0 L 0.421875 0 C 0.335938 0 0.28125 -0.0195312 0.25 -0.0625 C 0.21875 -0.101562 0.21875 -0.164062 0.25 -0.25 L 3.40625 -7.328125 C 3.4375 -7.378906 3.476562 -7.421875 3.53125 -7.453125 C 3.582031 -7.492188 3.632812 -7.515625 3.6875 -7.515625 L 3.75 -7.515625 C 3.800781 -7.515625 3.847656 -7.492188 3.890625 -7.453125 C 3.941406 -7.421875 3.984375 -7.375 4.015625 -7.3125 Z M 2.5 -2.078125 L 4.9375 -2.078125 L 3.71875 -5.046875 Z M 2.5 -2.078125 "/></g></g><g style="fill:#283389;fill-opacity:1;"><g transform="translate(144.76361, 267.317649)"><path style="stroke:none" d="M 5.546875 -2.1875 L 6.53125 -0.25 C 6.570312 -0.175781 6.578125 -0.113281 6.546875 -0.0625 C 6.523438 -0.0195312 6.472656 0 6.390625 0 L 5.328125 0 C 5.273438 0 5.222656 -0.015625 5.171875 -0.046875 C 5.128906 -0.078125 5.097656 -0.117188 5.078125 -0.171875 L 4.3125 -1.75 C 4.226562 -1.738281 4.144531 -1.726562 4.0625 -1.71875 C 3.976562 -1.71875 3.890625 -1.71875 3.796875 -1.71875 L 2.265625 -1.71875 L 2.265625 -0.203125 C 2.265625 -0.140625 2.242188 -0.0859375 2.203125 -0.046875 C 2.160156 -0.015625 2.109375 0 2.046875 0 L 1.109375 0 C 1.046875 0 0.992188 -0.015625 0.953125 -0.046875 C 0.910156 -0.0859375 0.890625 -0.140625 0.890625 -0.203125 L 0.890625 -7.203125 C 0.890625 -7.265625 0.910156 -7.316406 0.953125 -7.359375 C 0.992188 -7.398438 1.046875 -7.421875 1.109375 -7.421875 L 1.34375 -7.421875 C 1.488281 -7.421875 1.628906 -7.421875 1.765625 -7.421875 C 1.910156 -7.421875 2.007812 -7.421875 2.0625 -7.421875 L 3.796875 -7.421875 C 4.234375 -7.421875 4.632812 -7.347656 5 -7.203125 C 5.363281 -7.066406 5.679688 -6.867188 5.953125 -6.609375 C 6.222656 -6.347656 6.429688 -6.039062 6.578125 -5.6875 C 6.722656 -5.34375 6.796875 -4.960938 6.796875 -4.546875 C 6.796875 -4.035156 6.679688 -3.578125 6.453125 -3.171875 C 6.234375 -2.765625 5.929688 -2.4375 5.546875 -2.1875 Z M 3.71875 -2.859375 C 4.039062 -2.859375 4.332031 -2.929688 4.59375 -3.078125 C 4.851562 -3.222656 5.054688 -3.421875 5.203125 -3.671875 C 5.347656 -3.929688 5.421875 -4.222656 5.421875 -4.546875 C 5.421875 -4.785156 5.375 -5.003906 5.28125 -5.203125 C 5.195312 -5.410156 5.078125 -5.585938 4.921875 -5.734375 C 4.773438 -5.890625 4.597656 -6.007812 4.390625 -6.09375 C 4.179688 -6.175781 3.957031 -6.21875 3.71875 -6.21875 L 2.265625 -6.21875 L 2.265625 -2.859375 Z M 3.71875 -2.859375 "/></g></g><g style="fill:#283389;fill-opacity:1;"><g transform="translate(157.467924, 267.317649)"><path style="stroke:none" d="M 2.265625 -7.265625 L 2.265625 -0.15625 C 2.265625 -0.0507812 2.207031 0 2.09375 0 L 1.046875 0 C 0.941406 0 0.890625 -0.0507812 0.890625 -0.15625 L 0.890625 -7.265625 C 0.890625 -7.367188 0.941406 -7.421875 1.046875 -7.421875 L 2.09375 -7.421875 C 2.207031 -7.421875 2.265625 -7.367188 2.265625 -7.265625 Z M 2.265625 -7.265625 "/></g></g><g style="fill:#283389;fill-opacity:1;"><g transform="translate(165.911203, 267.317649)"><path style="stroke:none" d="M 7.328125 -7.421875 C 7.429688 -7.421875 7.484375 -7.367188 7.484375 -7.265625 L 7.484375 -0.125 C 7.484375 -0.0625 7.460938 -0.0078125 7.421875 0.03125 C 7.390625 0.0703125 7.347656 0.09375 7.296875 0.09375 C 7.234375 0.09375 7.179688 0.0703125 7.140625 0.03125 C 7.097656 0 7.046875 -0.0351562 6.984375 -0.078125 L 2.265625 -4.5625 L 2.265625 -0.15625 C 2.265625 -0.0507812 2.210938 0 2.109375 0 L 1.046875 0 C 0.941406 0 0.890625 -0.0507812 0.890625 -0.15625 L 0.890625 -7.296875 C 0.890625 -7.359375 0.90625 -7.410156 0.9375 -7.453125 C 0.96875 -7.492188 1.007812 -7.515625 1.0625 -7.515625 L 1.078125 -7.515625 C 1.128906 -7.515625 1.175781 -7.492188 1.21875 -7.453125 C 1.257812 -7.421875 1.304688 -7.382812 1.359375 -7.34375 L 6.109375 -2.84375 L 6.109375 -7.265625 C 6.109375 -7.367188 6.164062 -7.421875 6.28125 -7.421875 Z M 7.328125 -7.421875 "/></g></g><g style="fill:#283389;fill-opacity:1;"><g transform="translate(179.581937, 267.317649)"><path style="stroke:none" d="M 6.703125 -3.78125 C 6.816406 -3.78125 6.875 -3.722656 6.875 -3.609375 L 6.875 -0.828125 C 6.875 -0.773438 6.863281 -0.726562 6.84375 -0.6875 C 6.820312 -0.644531 6.789062 -0.609375 6.75 -0.578125 C 6.601562 -0.484375 6.4375 -0.394531 6.25 -0.3125 C 6.0625 -0.226562 5.859375 -0.148438 5.640625 -0.078125 C 5.421875 -0.015625 5.195312 0.03125 4.96875 0.0625 C 4.75 0.101562 4.535156 0.125 4.328125 0.125 C 3.890625 0.125 3.472656 0.0625 3.078125 -0.0625 C 2.691406 -0.195312 2.335938 -0.378906 2.015625 -0.609375 C 1.691406 -0.835938 1.410156 -1.109375 1.171875 -1.421875 C 0.941406 -1.742188 0.757812 -2.097656 0.625 -2.484375 C 0.5 -2.867188 0.4375 -3.273438 0.4375 -3.703125 C 0.4375 -4.128906 0.5 -4.535156 0.625 -4.921875 C 0.757812 -5.316406 0.941406 -5.671875 1.171875 -5.984375 C 1.410156 -6.296875 1.691406 -6.566406 2.015625 -6.796875 C 2.335938 -7.035156 2.691406 -7.21875 3.078125 -7.34375 C 3.472656 -7.46875 3.890625 -7.53125 4.328125 -7.53125 C 4.578125 -7.53125 4.835938 -7.5 5.109375 -7.4375 C 5.378906 -7.382812 5.644531 -7.300781 5.90625 -7.1875 C 6.164062 -7.082031 6.398438 -6.941406 6.609375 -6.765625 C 6.648438 -6.734375 6.675781 -6.6875 6.6875 -6.625 C 6.695312 -6.570312 6.6875 -6.519531 6.65625 -6.46875 L 6.109375 -5.65625 C 6.078125 -5.601562 6.03125 -5.570312 5.96875 -5.5625 C 5.914062 -5.5625 5.863281 -5.582031 5.8125 -5.625 C 5.664062 -5.757812 5.503906 -5.863281 5.328125 -5.9375 C 5.160156 -6.019531 4.988281 -6.078125 4.8125 -6.109375 C 4.644531 -6.140625 4.484375 -6.15625 4.328125 -6.15625 C 3.972656 -6.15625 3.644531 -6.09375 3.34375 -5.96875 C 3.039062 -5.84375 2.773438 -5.671875 2.546875 -5.453125 C 2.316406 -5.234375 2.140625 -4.972656 2.015625 -4.671875 C 1.890625 -4.367188 1.828125 -4.046875 1.828125 -3.703125 C 1.828125 -3.359375 1.882812 -3.035156 2 -2.734375 C 2.125 -2.429688 2.296875 -2.164062 2.515625 -1.9375 C 2.742188 -1.707031 3.007812 -1.523438 3.3125 -1.390625 C 3.625 -1.265625 3.960938 -1.203125 4.328125 -1.203125 C 4.453125 -1.203125 4.585938 -1.21875 4.734375 -1.25 C 4.890625 -1.28125 5.039062 -1.320312 5.1875 -1.375 C 5.332031 -1.4375 5.457031 -1.5 5.5625 -1.5625 L 5.5625 -2.625 L 4.296875 -2.625 C 4.191406 -2.625 4.140625 -2.675781 4.140625 -2.78125 L 4.140625 -3.609375 C 4.140625 -3.722656 4.191406 -3.78125 4.296875 -3.78125 Z M 6.703125 -3.78125 "/></g></g><g style="fill:#283389;fill-opacity:1;"><g transform="translate(192.393631, 267.317649)"><path style="stroke:none" d=""/></g></g><g style="fill:#283389;fill-opacity:1;"><g transform="translate(200.836909, 267.317649)"><path style="stroke:none" d="M 6.25 -1.3125 C 6.34375 -1.3125 6.414062 -1.285156 6.46875 -1.234375 C 6.519531 -1.179688 6.546875 -1.113281 6.546875 -1.03125 L 6.546875 -0.21875 C 6.546875 -0.15625 6.523438 -0.101562 6.484375 -0.0625 C 6.453125 -0.0195312 6.398438 0 6.328125 0 L 1.109375 0 C 0.960938 0 0.890625 -0.0703125 0.890625 -0.21875 L 0.890625 -7.203125 C 0.890625 -7.347656 0.960938 -7.421875 1.109375 -7.421875 L 6.21875 -7.421875 C 6.289062 -7.421875 6.347656 -7.398438 6.390625 -7.359375 C 6.429688 -7.316406 6.453125 -7.265625 6.453125 -7.203125 L 6.453125 -6.328125 C 6.453125 -6.179688 6.375 -6.109375 6.21875 -6.109375 L 2.265625 -6.109375 L 2.265625 -4.0625 L 5.359375 -4.0625 C 5.441406 -4.0625 5.503906 -4.039062 5.546875 -4 C 5.597656 -3.96875 5.625 -3.910156 5.625 -3.828125 L 5.625 -3.015625 C 5.625 -2.953125 5.597656 -2.898438 5.546875 -2.859375 C 5.503906 -2.816406 5.441406 -2.796875 5.359375 -2.796875 L 2.265625 -2.796875 L 2.265625 -1.3125 Z M 6.25 -1.3125 "/></g></g><g style="fill:#283389;fill-opacity:1;"><g transform="translate(213.184912, 267.317649)"><path style="stroke:none" d="M 7.328125 -7.421875 C 7.429688 -7.421875 7.484375 -7.367188 7.484375 -7.265625 L 7.484375 -0.125 C 7.484375 -0.0625 7.460938 -0.0078125 7.421875 0.03125 C 7.390625 0.0703125 7.347656 0.09375 7.296875 0.09375 C 7.234375 0.09375 7.179688 0.0703125 7.140625 0.03125 C 7.097656 0 7.046875 -0.0351562 6.984375 -0.078125 L 2.265625 -4.5625 L 2.265625 -0.15625 C 2.265625 -0.0507812 2.210938 0 2.109375 0 L 1.046875 0 C 0.941406 0 0.890625 -0.0507812 0.890625 -0.15625 L 0.890625 -7.296875 C 0.890625 -7.359375 0.90625 -7.410156 0.9375 -7.453125 C 0.96875 -7.492188 1.007812 -7.515625 1.0625 -7.515625 L 1.078125 -7.515625 C 1.128906 -7.515625 1.175781 -7.492188 1.21875 -7.453125 C 1.257812 -7.421875 1.304688 -7.382812 1.359375 -7.34375 L 6.109375 -2.84375 L 6.109375 -7.265625 C 6.109375 -7.367188 6.164062 -7.421875 6.28125 -7.421875 Z M 7.328125 -7.421875 "/></g></g><g style="fill:#283389;fill-opacity:1;"><g transform="translate(226.855646, 267.317649)"><path style="stroke:none" d="M 5.609375 -1.21875 C 5.722656 -1.21875 5.78125 -1.160156 5.78125 -1.046875 L 5.78125 -0.171875 C 5.78125 -0.0546875 5.722656 0 5.609375 0 L 1.046875 0 C 0.941406 0 0.890625 -0.0546875 0.890625 -0.171875 L 0.890625 -7.265625 C 0.890625 -7.367188 0.941406 -7.421875 1.046875 -7.421875 L 2.109375 -7.421875 C 2.210938 -7.421875 2.265625 -7.367188 2.265625 -7.265625 L 2.265625 -1.21875 Z M 5.609375 -1.21875 "/></g></g><g style="fill:#283389;fill-opacity:1;"><g transform="translate(238.120087, 267.317649)"><path style="stroke:none" d="M 2.265625 -7.265625 L 2.265625 -0.15625 C 2.265625 -0.0507812 2.207031 0 2.09375 0 L 1.046875 0 C 0.941406 0 0.890625 -0.0507812 0.890625 -0.15625 L 0.890625 -7.265625 C 0.890625 -7.367188 0.941406 -7.421875 1.046875 -7.421875 L 2.09375 -7.421875 C 2.207031 -7.421875 2.265625 -7.367188 2.265625 -7.265625 Z M 2.265625 -7.265625 "/></g></g><g style="fill:#283389;fill-opacity:1;"><g transform="translate(246.563366, 267.317649)"><path style="stroke:none" d="M 3.34375 0.125 C 3.070312 0.125 2.796875 0.09375 2.515625 0.03125 C 2.234375 -0.03125 1.96875 -0.113281 1.71875 -0.21875 C 1.476562 -0.332031 1.253906 -0.460938 1.046875 -0.609375 C 0.847656 -0.765625 0.679688 -0.9375 0.546875 -1.125 C 0.503906 -1.164062 0.488281 -1.210938 0.5 -1.265625 C 0.507812 -1.328125 0.539062 -1.382812 0.59375 -1.4375 L 1.21875 -2.078125 C 1.269531 -2.117188 1.320312 -2.132812 1.375 -2.125 C 1.425781 -2.113281 1.484375 -2.082031 1.546875 -2.03125 C 1.691406 -1.875 1.859375 -1.734375 2.046875 -1.609375 C 2.242188 -1.484375 2.445312 -1.382812 2.65625 -1.3125 C 2.875 -1.238281 3.085938 -1.203125 3.296875 -1.203125 C 3.710938 -1.203125 4.03125 -1.28125 4.25 -1.4375 C 4.46875 -1.601562 4.578125 -1.832031 4.578125 -2.125 C 4.578125 -2.300781 4.515625 -2.453125 4.390625 -2.578125 C 4.273438 -2.703125 4.101562 -2.816406 3.875 -2.921875 C 3.644531 -3.023438 3.359375 -3.132812 3.015625 -3.25 C 2.671875 -3.351562 2.359375 -3.472656 2.078125 -3.609375 C 1.804688 -3.742188 1.570312 -3.894531 1.375 -4.0625 C 1.1875 -4.226562 1.039062 -4.421875 0.9375 -4.640625 C 0.84375 -4.867188 0.796875 -5.132812 0.796875 -5.4375 C 0.796875 -5.851562 0.898438 -6.21875 1.109375 -6.53125 C 1.316406 -6.84375 1.609375 -7.085938 1.984375 -7.265625 C 2.367188 -7.441406 2.816406 -7.53125 3.328125 -7.53125 C 3.609375 -7.53125 3.882812 -7.492188 4.15625 -7.421875 C 4.425781 -7.347656 4.671875 -7.25 4.890625 -7.125 C 5.117188 -7 5.300781 -6.851562 5.4375 -6.6875 C 5.488281 -6.632812 5.515625 -6.570312 5.515625 -6.5 C 5.523438 -6.4375 5.503906 -6.378906 5.453125 -6.328125 L 4.953125 -5.75 C 4.878906 -5.664062 4.804688 -5.625 4.734375 -5.625 C 4.671875 -5.632812 4.597656 -5.664062 4.515625 -5.71875 C 4.347656 -5.875 4.148438 -5.992188 3.921875 -6.078125 C 3.703125 -6.171875 3.484375 -6.21875 3.265625 -6.21875 C 2.910156 -6.21875 2.632812 -6.140625 2.4375 -5.984375 C 2.25 -5.835938 2.15625 -5.648438 2.15625 -5.421875 C 2.15625 -5.234375 2.222656 -5.070312 2.359375 -4.9375 C 2.503906 -4.8125 2.691406 -4.695312 2.921875 -4.59375 C 3.160156 -4.488281 3.425781 -4.390625 3.71875 -4.296875 C 4.019531 -4.191406 4.304688 -4.082031 4.578125 -3.96875 C 4.847656 -3.851562 5.09375 -3.71875 5.3125 -3.5625 C 5.53125 -3.40625 5.703125 -3.207031 5.828125 -2.96875 C 5.953125 -2.738281 6.015625 -2.460938 6.015625 -2.140625 C 6.015625 -1.796875 5.945312 -1.484375 5.8125 -1.203125 C 5.6875 -0.921875 5.503906 -0.679688 5.265625 -0.484375 C 5.023438 -0.296875 4.742188 -0.144531 4.421875 -0.03125 C 4.097656 0.0703125 3.738281 0.125 3.34375 0.125 Z M 3.34375 0.125 "/></g></g><g style="fill:#283389;fill-opacity:1;"><g transform="translate(258.340308, 267.317649)"><path style="stroke:none" d="M 7.171875 -7.421875 C 7.273438 -7.421875 7.328125 -7.367188 7.328125 -7.265625 L 7.328125 -0.15625 C 7.328125 -0.0507812 7.273438 0 7.171875 0 L 6.109375 0 C 6.003906 0 5.953125 -0.0507812 5.953125 -0.15625 L 5.953125 -2.359375 L 2.265625 -2.359375 L 2.265625 -0.15625 C 2.265625 -0.0507812 2.210938 0 2.109375 0 L 1.046875 0 C 0.941406 0 0.890625 -0.0507812 0.890625 -0.15625 L 0.890625 -7.265625 C 0.890625 -7.367188 0.941406 -7.421875 1.046875 -7.421875 L 2.109375 -7.421875 C 2.210938 -7.421875 2.265625 -7.367188 2.265625 -7.265625 L 2.265625 -3.5625 L 5.953125 -3.5625 L 5.953125 -7.265625 C 5.953125 -7.367188 6.003906 -7.421875 6.109375 -7.421875 Z M 7.171875 -7.421875 "/></g></g></g></svg>